ffmpeg started on 2016-12-05 at 01:43:25
Report written to "Output/x264/results/ffmpeg/sintelveryfast4500k.log"
Command line:
Tools/ffmpeg/ffmpeg -benchmark -y -i Input/y4m/sintel.y4m -c:v libx264 -preset veryfast -b:v 4500k -an Output/x264/encoded/sintelveryfast4500k.mkv
ffmpeg version N-82227-gdb23fde Copyright (c) 2000-2016 the FFmpeg developers
  built with gcc 5.4.0 (Ubuntu 5.4.0-6ubuntu1~16.04.2) 20160609
  configuration: --prefix=/home/jaroslav/ffmpeg_build --pkg-config-flags=--static --extra-cflags=-I/home/jaroslav/ffmpeg_build/include --extra-ldflags=-L/home/jaroslav/ffmpeg_build/lib --bindir=/home/jaroslav/bin --enable-gpl --enable-libass --enable-libfdk-aac --enable-libfreetype --enable-libmp3lame --enable-libopus --enable-libtheora --enable-libvorbis --enable-libvpx --enable-libx264 --enable-libx265 --enable-nvenc --enable-libmfx --enable-libxvid --enable-libgsm --enable-libopencore-amrnb --enable-version3 --enable-nonfree
  libavutil      55. 35.100 / 55. 35.100
  libavcodec     57. 66.101 / 57. 66.101
  libavformat    57. 57.100 / 57. 57.100
  libavdevice    57.  2.100 / 57.  2.100
  libavfilter     6. 66.100 /  6. 66.100
  libswscale      4.  3.100 /  4.  3.100
  libswresample   2.  4.100 /  2.  4.100
  libpostproc    54.  2.100 / 54.  2.100
Input #0, yuv4mpegpipe, from 'Input/y4m/sintel.y4m':
  Duration: 00:00:20.83, start: 0.000000, bitrate: 2057307 kb/s
    Stream #0:0: Video: rawvideo (I420 / 0x30323449), yuv420p(progressive), 4096x1744, SAR 1:1 DAR 256:109, 24 fps, 24 tbr, 24 tbn, 24 tbc
[libx264 @ 0x33181c0] using SAR=1/1
[libx264 @ 0x33181c0] using cpu capabilities: MMX2 SSE2Fast SSSE3 SSE4.2 AVX FMA3 AVX2 LZCNT BMI2
[libx264 @ 0x33181c0] profile High, level 5.1
[libx264 @ 0x33181c0] 264 - core 148 - H.264/MPEG-4 AVC codec - Copyleft 2003-2016 - http://www.videolan.org/x264.html - options: cabac=1 ref=1 deblock=1:0:0 analyse=0x3:0x113 me=hex subme=2 psy=1 psy_rd=1.00:0.00 mixed_ref=0 me_range=16 chroma_me=1 trellis=0 8x8dct=1 cqm=0 deadzone=21,11 fast_pskip=1 chroma_qp_offset=0 threads=6 lookahead_threads=2 sliced_threads=0 nr=0 decimate=1 interlaced=0 bluray_compat=0 constrained_intra=0 bframes=3 b_pyramid=2 b_adapt=1 b_bias=0 direct=1 weightb=1 open_gop=0 weightp=1 keyint=250 keyint_min=24 scenecut=40 intra_refresh=0 rc_lookahead=10 rc=abr mbtree=1 bitrate=4500 ratetol=1.0 qcomp=0.60 qpmin=0 qpmax=69 qpstep=4 ip_ratio=1.40 aq=1:1.00
Output #0, matroska, to 'Output/x264/encoded/sintelveryfast4500k.mkv':
  Metadata:
    encoder         : Lavf57.57.100
    Stream #0:0: Video: h264 (libx264) (H264 / 0x34363248), yuv420p, 4096x1744 [SAR 1:1 DAR 256:109], q=-1--1, 4500 kb/s, 24 fps, 1k tbn, 24 tbc
    Metadata:
      encoder         : Lavc57.66.101 libx264
    Side data:
      cpb: bitrate max/min/avg: 0/0/4500000 buffer size: 0 vbv_delay: -1
Stream mapping:
  Stream #0:0 -> #0:0 (rawvideo (native) -> h264 (libx264))
Press [q] to stop, [?] for help
frame=   10 fps=0.0 q=0.0 size=       0kB time=00:00:00.00 bitrate=N/A speed=   0x    frame=   18 fps= 17 q=0.0 size=       0kB time=00:00:00.00 bitrate=N/A speed=   0x    frame=   24 fps= 15 q=40.0 size=       1kB time=00:00:00.04 bitrate= 136.4kbits/s speed=0.0265x    frame=   31 fps= 14 q=48.0 size=       1kB time=00:00:00.33 bitrate=  17.6kbits/s speed=0.156x    frame=   38 fps= 14 q=48.0 size=       1kB time=00:00:00.62 bitrate=   9.4kbits/s speed=0.236x    frame=   51 fps= 15 q=46.0 size=       1kB time=00:00:01.16 bitrate=   5.0kbits/s speed=0.352x    frame=   58 fps= 14 q=46.0 size=       1kB time=00:00:01.45 bitrate=   4.0kbits/s speed=0.361x    frame=   68 fps= 15 q=45.0 size=       1kB time=00:00:01.87 bitrate=   3.1kbits/s speed=0.402x    frame=   69 fps=8.9 q=45.0 size=       1kB time=00:00:01.91 bitrate=   3.1kbits/s speed=0.248x    frame=   70 fps=6.9 q=45.0 size=       1kB time=00:00:01.95 bitrate=   3.0kbits/s speed=0.193x    frame=   82 fps=7.7 q=45.0 size=       1kB time=00:00:02.45 bitrate=   2.4kbits/s speed=0.23x    frame=   93 fps=8.3 q=45.0 size=       1kB time=00:00:02.91 bitrate=   2.0kbits/s speed=0.26x    frame=  104 fps=8.9 q=44.0 size=       1kB time=00:00:03.37 bitrate=   1.7kbits/s speed=0.287x    frame=  114 fps=9.3 q=44.0 size=       1kB time=00:00:03.79 bitrate=   1.5kbits/s speed=0.309x    frame=  121 fps=9.5 q=44.0 size=    2522kB time=00:00:04.08 bitrate=5059.0kbits/s speed=0.319x    frame=  132 fps=9.9 q=43.0 size=    2522kB time=00:00:04.54 bitrate=4547.9kbits/s speed=0.341x    frame=  137 fps=9.9 q=43.0 size=    2522kB time=00:00:04.75 bitrate=4348.8kbits/s speed=0.343x    frame=  151 fps= 11 q=43.0 size=    2522kB time=00:00:05.33 bitrate=3873.4kbits/s speed=0.371x    frame=  163 fps= 11 q=43.0 size=    2522kB time=00:00:05.83 bitrate=3541.5kbits/s speed=0.391x    frame=  175 fps= 11 q=43.0 size=    2522kB time=00:00:06.33 bitrate=3261.9kbits/s speed=0.411x    frame=  187 fps= 12 q=43.0 size=    3688kB time=00:00:06.83 bitrate=4421.2kbits/s speed=0.429x    frame=  199 fps= 12 q=40.0 size=    3688kB time=00:00:07.33 bitrate=4119.8kbits/s speed=0.446x    frame=  208 fps= 12 q=42.0 size=    4153kB time=00:00:07.70 bitrate=4413.6kbits/s speed=0.455x    frame=  216 fps= 12 q=42.0 size=    4153kB time=00:00:08.04 bitrate=4230.3kbits/s speed=0.457x    frame=  230 fps= 13 q=42.0 size=    4153kB time=00:00:08.62 bitrate=3944.4kbits/s speed=0.477x    frame=  244 fps= 13 q=41.0 size=    4153kB time=00:00:09.20 bitrate=3694.7kbits/s speed=0.495x    frame=  257 fps= 13 q=41.0 size=    4153kB time=00:00:09.75 bitrate=3489.3kbits/s speed=0.51x    frame=  270 fps= 14 q=40.0 size=    4153kB time=00:00:10.29 bitrate=3305.6kbits/s speed=0.523x    frame=  280 fps= 14 q=40.0 size=    4153kB time=00:00:10.70 bitrate=3177.2kbits/s speed=0.53x    frame=  295 fps= 14 q=40.0 size=    5486kB time=00:00:11.33 bitrate=3965.3kbits/s speed=0.548x    frame=  310 fps= 15 q=39.0 size=    5486kB time=00:00:11.95 bitrate=3758.1kbits/s speed=0.564x    frame=  327 fps= 15 q=39.0 size=    5486kB time=00:00:12.66 bitrate=3547.7kbits/s speed=0.583x    frame=  345 fps= 16 q=38.0 size=    5486kB time=00:00:13.41 bitrate=3349.4kbits/s speed=0.604x    frame=  362 fps= 16 q=37.0 size=    5486kB time=00:00:14.12 bitrate=3181.6kbits/s speed=0.621x    frame=  370 fps= 16 q=36.0 size=    5486kB time=00:00:14.45 bitrate=3108.3kbits/s speed=0.621x    frame=  381 fps= 16 q=36.0 size=    5486kB time=00:00:14.91 bitrate=3012.7kbits/s speed=0.627x    frame=  395 fps= 16 q=36.0 size=    6657kB time=00:00:15.50 bitrate=3518.0kbits/s speed=0.637x    frame=  405 fps= 16 q=36.0 size=    6657kB time=00:00:15.91 bitrate=3425.8kbits/s speed=0.636x    frame=  419 fps= 16 q=36.0 size=    6657kB time=00:00:16.50 bitrate=3304.8kbits/s speed=0.646x    frame=  434 fps= 17 q=33.0 size=    6657kB time=00:00:17.12 bitrate=3184.2kbits/s speed=0.655x    frame=  448 fps= 17 q=36.0 size=    7897kB time=00:00:17.70 bitrate=3653.0kbits/s speed=0.664x    frame=  464 fps= 17 q=36.0 size=    7897kB time=00:00:18.37 bitrate=3520.5kbits/s speed=0.676x    frame=  477 fps= 17 q=35.0 size=    7897kB time=00:00:18.91 bitrate=3419.6kbits/s speed=0.682x    frame=  491 fps= 17 q=35.0 size=    7897kB time=00:00:19.50 bitrate=3317.4kbits/s speed=0.691x    frame=  500 fps= 17 q=-1.0 Lsize=    9514kB time=00:00:20.70 bitrate=3763.4kbits/s speed=0.714x    
video:9509kB audio:0kB subtitle:0kB other streams:0kB global headers:0kB muxing overhead: 0.049028%
bench: utime=66.560s
bench: maxrss=930124kB
[libx264 @ 0x33181c0] frame I:8     Avg QP:31.14  size: 74582
[libx264 @ 0x33181c0] frame P:284   Avg QP:36.37  size: 24241
[libx264 @ 0x33181c0] frame B:208   Avg QP:33.73  size: 10844
[libx264 @ 0x33181c0] consecutive B-frames: 41.2%  8.0%  6.0% 44.8%
[libx264 @ 0x33181c0] mb I  I16..4: 43.2% 55.0%  1.8%
[libx264 @ 0x33181c0] mb P  I16..4: 16.3% 16.1%  0.0%  P16..4:  7.4%  2.0%  0.4%  0.0%  0.0%    skip:57.7%
[libx264 @ 0x33181c0] mb B  I16..4:  2.1%  1.8%  0.0%  B16..8:  8.0%  1.4%  0.1%  direct: 1.0%  skip:85.6%  L0:44.5% L1:50.9% BI: 4.6%
[libx264 @ 0x33181c0] final ratefactor: 33.40
[libx264 @ 0x33181c0] 8x8 transform intra:49.7% inter:61.5%
[libx264 @ 0x33181c0] coded y,uvDC,uvAC intra: 12.6% 13.0% 0.4% inter: 0.9% 1.7% 0.0%
[libx264 @ 0x33181c0] i16 v,h,dc,p: 50% 28% 12%  9%
[libx264 @ 0x33181c0] i8 v,h,dc,ddl,ddr,vr,hd,vl,hu: 14% 20% 55%  2%  1%  1%  2%  2%  3%
[libx264 @ 0x33181c0] i4 v,h,dc,ddl,ddr,vr,hd,vl,hu: 20% 25% 14%  7%  8%  6%  9%  5%  7%
[libx264 @ 0x33181c0] i8c dc,h,v,p: 83%  9%  8%  0%
[libx264 @ 0x33181c0] Weighted P-Frames: Y:0.4% UV:0.0%
[libx264 @ 0x33181c0] kb/s:3738.83
